<svg xmlns="http://www.w3.org/2000/svg" width="24" height="24" viewBox="0 0 24 24" fill="none">
<path d="M17.8677 4.51921C17.8677 4.97689 17.4883 5.35642 17.0307 5.35642H6.42845C5.65839 5.35642 5.03342 5.98154 5.03342 6.75177V12.8913C5.03342 13.349 4.65397 13.7285 4.1964 13.7285C3.73882 13.7285 3.35938 13.349 3.35938 12.8913V6.75177C3.35938 5.05503 4.73209 3.682 6.42845 3.682H17.0307C17.4883 3.682 17.8677 4.06154 17.8677 4.51921Z" fill="black"/>
<path d="M7.82352 10.1007C7.82352 10.2904 7.75656 10.4802 7.6338 10.6365L4.84372 13.9853C4.764 14.0792 4.66481 14.1546 4.55304 14.2063C4.44126 14.258 4.31958 14.2848 4.19643 14.2848C4.07327 14.2848 3.95159 14.258 3.83982 14.2063C3.72805 14.1546 3.62886 14.0792 3.54913 13.9853L0.759061 10.6365C0.457733 10.2793 0.513534 9.75461 0.870663 9.45321C1.22779 9.15182 1.75233 9.20763 2.05365 9.56484L4.19643 12.1434L6.3392 9.56484C6.64053 9.20763 7.16506 9.16298 7.52219 9.45321C7.72308 9.62065 7.82352 9.86623 7.82352 10.1007ZM24.5639 4.51926C24.5639 6.82996 22.689 8.7053 20.3788 8.7053C18.0687 8.7053 16.1937 6.82996 16.1937 4.51926C16.1937 2.20856 18.0687 0.333211 20.3788 0.333211C22.689 0.333211 24.5639 2.20856 24.5639 4.51926ZM17.8678 4.51926C17.8678 5.90344 18.995 7.03089 20.3788 7.03089C21.7627 7.03089 22.8899 5.90344 22.8899 4.51926C22.8899 3.13507 21.7627 2.00763 20.3788 2.00763C18.995 2.00763 17.8678 3.13507 17.8678 4.51926ZM21.7739 11.7751V17.9146C21.7739 19.6114 20.4012 20.9844 18.7048 20.9844H8.10253C7.64496 20.9844 7.26551 20.6048 7.26551 20.1472C7.26551 19.6895 7.64496 19.31 8.10253 19.31H18.7048C19.4749 19.31 20.0998 18.6848 20.0998 17.9146V11.7751C20.0998 11.3174 20.4793 10.9379 20.9369 10.9379C21.3944 10.9379 21.7739 11.3174 21.7739 11.7751Z" fill="black"/>
<path d="M24.5639 14.5656C24.565 14.7386 24.5124 14.9077 24.4134 15.0497C24.3144 15.1916 24.1738 15.2994 24.0111 15.3581C23.8483 15.4168 23.6714 15.4237 23.5046 15.3777C23.3378 15.3318 23.1893 15.2352 23.0796 15.1014L20.9369 12.5228L18.7941 15.1014C18.6511 15.2718 18.4469 15.379 18.2255 15.3999C18.0041 15.4208 17.7834 15.3537 17.6111 15.213C17.254 14.9116 17.2093 14.387 17.4995 14.0298L20.2896 10.6809C20.4458 10.4911 20.6802 10.3795 20.9369 10.3795C21.1935 10.3795 21.4167 10.4911 21.5842 10.6809L24.3742 14.0298C24.497 14.186 24.5639 14.3758 24.5639 14.5656ZM8.93955 20.147C8.93955 22.4577 7.06462 24.333 4.75444 24.333C2.44426 24.333 0.569336 22.4577 0.569336 20.147C0.569336 17.8363 2.44426 15.9609 4.75444 15.9609C7.06462 15.9609 8.93955 17.8363 8.93955 20.147ZM2.24338 20.147C2.24338 21.5311 3.37057 22.6586 4.75444 22.6586C6.13832 22.6586 7.26551 21.5311 7.26551 20.147C7.26551 18.7628 6.13832 17.6353 4.75444 17.6353C3.37057 17.6353 2.24338 18.7628 2.24338 20.147Z" fill="black"/>
</svg>